<svg width="42" height="42" viewBox="0 0 42 42" fill="none" xmlns="http://www.w3.org/2000/svg">
<circle cx="21" cy="21" r="21" fill="#446DFC"/>
<path d="M27.997 29C19.466 29.012 12.991 22.46 13 14.003C13 13.45 13.448 13 14 13H16.64C17.135 13 17.556 13.364 17.629 13.854C17.8031 15.0291 18.1449 16.173 18.644 17.251L18.747 17.473C18.8162 17.6224 18.8311 17.7912 18.7891 17.9504C18.7471 18.1096 18.6509 18.2492 18.517 18.345C17.699 18.929 17.387 20.104 18.024 21.02C18.823 22.17 19.83 23.178 20.98 23.977C21.897 24.613 23.072 24.301 23.655 23.484C23.7507 23.3497 23.8904 23.2531 24.0498 23.211C24.2092 23.1688 24.3784 23.1836 24.528 23.253L24.749 23.355C25.827 23.855 26.971 24.197 28.146 24.371C28.636 24.444 29 24.865 29 25.361V28C29 28.1314 28.9741 28.2615 28.9238 28.3829C28.8735 28.5043 28.7997 28.6146 28.7068 28.7075C28.6138 28.8003 28.5034 28.874 28.382 28.9242C28.2606 28.9744 28.1304 29.0001 27.999 29H27.997Z" fill="white"/>
</svg>
