<svg width="42" height="42" viewBox="0 0 42 42" fill="none" xmlns="http://www.w3.org/2000/svg">
<circle cx="21" cy="21" r="21" fill="#FD695B"/>
<path d="M31 17.608V25.75C31.0001 26.5801 30.6824 27.3788 30.1123 27.9822C29.5422 28.5856 28.7628 28.948 27.934 28.995L27.75 29H14.25C13.4199 29.0001 12.6212 28.6824 12.0178 28.1123C11.4144 27.5422 11.052 26.7628 11.005 25.934L11 25.75V17.608L20.652 22.664C20.7594 22.7202 20.8788 22.7496 21 22.7496C21.1212 22.7496 21.2406 22.7202 21.348 22.664L31 17.608ZM14.25 13H27.75C28.5556 12.9999 29.3325 13.299 29.93 13.8393C30.5276 14.3795 30.9032 15.1225 30.984 15.924L21 21.154L11.016 15.924C11.0935 15.1543 11.443 14.4375 12.0017 13.9025C12.5605 13.3674 13.2917 13.0492 14.064 13.005L14.25 13H27.75H14.25Z" fill="white"/>
</svg>
