<svg width="48" height="48" viewBox="0 0 48 48" fill="none" xmlns="http://www.w3.org/2000/svg">
<rect width="48" height="48" rx="24" fill="#446DFC"/>
<path d="M24.0002 19.8343C21.7064 19.8343 19.8345 21.7062 19.8345 24C19.8345 26.2937 21.7064 28.1656 24.0002 28.1656C26.2939 28.1656 28.1658 26.2937 28.1658 24C28.1658 21.7062 26.2939 19.8343 24.0002 19.8343ZM36.4939 24C36.4939 22.275 36.5095 20.5656 36.4127 18.8437C36.3158 16.8437 35.8595 15.0687 34.397 13.6062C32.9314 12.1406 31.1595 11.6875 29.1595 11.5906C27.4345 11.4937 25.7252 11.5094 24.0033 11.5094C22.2783 11.5094 20.5689 11.4937 18.847 11.5906C16.847 11.6875 15.072 12.1437 13.6095 13.6062C12.1439 15.0719 11.6908 16.8437 11.5939 18.8437C11.497 20.5687 11.5126 22.2781 11.5126 24C11.5126 25.7218 11.497 27.4343 11.5939 29.1562C11.6908 31.1562 12.147 32.9312 13.6095 34.3937C15.0752 35.8593 16.847 36.3125 18.847 36.4093C20.572 36.5062 22.2814 36.4906 24.0033 36.4906C25.7283 36.4906 27.4377 36.5062 29.1595 36.4093C31.1595 36.3125 32.9345 35.8562 34.397 34.3937C35.8627 32.9281 36.3158 31.1562 36.4127 29.1562C36.5127 27.4343 36.4939 25.725 36.4939 24ZM24.0002 30.4093C20.4533 30.4093 17.5908 27.5468 17.5908 24C17.5908 20.4531 20.4533 17.5906 24.0002 17.5906C27.547 17.5906 30.4095 20.4531 30.4095 24C30.4095 27.5468 27.547 30.4093 24.0002 30.4093ZM30.672 18.825C29.8439 18.825 29.1752 18.1562 29.1752 17.3281C29.1752 16.5 29.8439 15.8312 30.672 15.8312C31.5002 15.8312 32.1689 16.5 32.1689 17.3281C32.1692 17.5247 32.1306 17.7195 32.0555 17.9012C31.9803 18.0829 31.8701 18.2481 31.731 18.3871C31.592 18.5261 31.4269 18.6364 31.2452 18.7115C31.0634 18.7867 30.8687 18.8252 30.672 18.825Z" fill="white"/>
</svg>
