<svg width="42" height="42" viewBox="0 0 42 42" fill="none" xmlns="http://www.w3.org/2000/svg">
<circle cx="21" cy="21" r="21" fill="#14800A"/>
<path d="M26 11H16C13.24 11 11 13.23 11 15.98V21.96V22.96C11 25.71 13.24 27.94 16 27.94H17.5C17.77 27.94 18.13 28.12 18.3 28.34L19.8 30.33C20.46 31.21 21.54 31.21 22.2 30.33L23.7 28.34C23.89 28.09 24.19 27.94 24.5 27.94H26C28.76 27.94 31 25.71 31 22.96V15.98C31 13.23 28.76 11 26 11ZM22 22.75H16C15.59 22.75 15.25 22.41 15.25 22C15.25 21.59 15.59 21.25 16 21.25H22C22.41 21.25 22.75 21.59 22.75 22C22.75 22.41 22.41 22.75 22 22.75ZM26 17.75H16C15.59 17.75 15.25 17.41 15.25 17C15.25 16.59 15.59 16.25 16 16.25H26C26.41 16.25 26.75 16.59 26.75 17C26.75 17.41 26.41 17.75 26 17.75Z" fill="white"/>
</svg>
