<svg width="48" height="48" viewBox="0 0 48 48" fill="none" xmlns="http://www.w3.org/2000/svg">
<rect width="48" height="48" rx="24" fill="#446DFC"/>
<path d="M38.3038 15.136C37.5198 16.304 36.5278 17.344 35.3758 18.176C35.3918 18.416 35.3918 18.672 35.3918 18.928C35.3918 26.688 29.4878 35.632 18.7038 35.632C15.3918 35.632 12.3038 34.656 9.6958 32.992C10.1598 33.04 10.6238 33.072 11.1038 33.072C13.8558 33.072 16.3838 32.128 18.3838 30.56C17.1604 30.5347 15.9754 30.1279 14.9943 29.3965C14.0133 28.665 13.2852 27.6454 12.9118 26.48C13.2638 26.544 13.6318 26.592 14.0158 26.592C14.5438 26.592 15.0718 26.512 15.5518 26.384C14.2248 26.1116 13.0323 25.3899 12.1754 24.3407C11.3184 23.2914 10.8496 21.9787 10.8478 20.624V20.56C11.6478 20.992 12.5438 21.264 13.5038 21.296C12.7003 20.757 12.042 20.0284 11.5871 19.1744C11.1322 18.3205 10.8948 17.3676 10.8958 16.4C10.8958 15.328 11.1838 14.32 11.6958 13.456C14.5918 17.008 18.9118 19.344 23.7918 19.584C23.6958 19.152 23.6318 18.704 23.6318 18.24C23.636 16.6855 24.2566 15.196 25.3573 14.0982C26.4581 13.0005 27.9492 12.384 29.5038 12.384C31.1998 12.384 32.7198 13.088 33.7918 14.24C35.1198 13.968 36.3838 13.488 37.5198 12.816C37.0718 14.176 36.1438 15.328 34.9278 16.048C36.0936 15.9206 37.2325 15.6129 38.3038 15.136Z" fill="white"/>
</svg>
